<svg width="34" height="32" viewBox="0 0 34 32" fill="none" xmlns="http://www.w3.org/2000/svg">
<path d="M24.888 2.19966C24.6203 0.946405 23.4579 0 22.0675 0C21.7498 0 21.4918 0.245812 21.4918 0.549916C21.4918 0.85402 21.7498 1.09983 22.0675 1.09983C23.0198 1.09983 23.7947 1.84002 23.7947 2.74958C23.7947 3.65914 23.0198 4.39933 22.0675 4.39933C21.7498 4.39933 21.4918 4.64514 21.4918 4.94924C21.4918 5.25335 21.7498 5.49916 22.0675 5.49916C23.4573 5.49916 24.6203 4.55275 24.888 3.2995H32.4304V8.24874H1.34186V3.2995H9.40185H11.129C11.4468 3.2995 11.7047 3.05368 11.7047 2.74958C11.7047 2.44548 11.4468 2.19966 11.129 2.19966H10.0835C10.3218 1.56066 10.9551 1.09983 11.7047 1.09983C12.6569 1.09983 13.4318 1.84002 13.4318 2.74958C13.4318 3.65914 12.6569 4.39933 11.7047 4.39933C11.3869 4.39933 11.129 4.64514 11.129 4.94924C11.129 5.25335 11.3869 5.49916 11.7047 5.49916C13.2919 5.49916 14.5833 4.2657 14.5833 2.74958C14.5833 1.23346 13.2919 0 11.7047 0C10.3149 0 9.15199 0.946405 8.88428 2.19966H0.19043V9.34857V31.3452H33.5818V9.34857V2.19966H24.888ZM32.4304 30.2454H1.34186V9.34857H32.4304V30.2454Z" fill="white"/>
<path d="M15.159 1.09983C16.1112 1.09983 16.8861 1.84002 16.8861 2.74958C16.8861 3.65914 16.1112 4.39933 15.159 4.39933C14.8412 4.39933 14.5833 4.64514 14.5833 4.94924C14.5833 5.25335 14.8412 5.49916 15.159 5.49916C16.7462 5.49916 18.0376 4.2657 18.0376 2.74958C18.0376 1.23346 16.7462 0 15.159 0C14.8412 0 14.5833 0.245812 14.5833 0.549916C14.5833 0.85402 14.8412 1.09983 15.159 1.09983Z" fill="white"/>
<path d="M18.6133 1.09983C19.5655 1.09983 20.3404 1.84002 20.3404 2.74958C20.3404 3.65914 19.5655 4.39933 18.6133 4.39933C18.2955 4.39933 18.0376 4.64514 18.0376 4.94924C18.0376 5.25335 18.2955 5.49916 18.6133 5.49916C20.2005 5.49916 21.4919 4.2657 21.4919 2.74958C21.4919 1.23346 20.2005 0 18.6133 0C18.2955 0 18.0376 0.245812 18.0376 0.549916C18.0376 0.85402 18.2955 1.09983 18.6133 1.09983Z" fill="white"/>
<path d="M5.37189 13.7475H18.0376C18.3554 13.7475 18.6133 13.5017 18.6133 13.1976C18.6133 12.8935 18.3554 12.6476 18.0376 12.6476H5.37189C5.05409 12.6476 4.79617 12.8935 4.79617 13.1976C4.79617 13.5017 5.05409 13.7475 5.37189 13.7475Z" fill="white"/>
<path d="M28.4004 21.4467H19.7647C19.4469 21.4467 19.189 21.6925 19.189 21.9966C19.189 22.3007 19.4469 22.5465 19.7647 22.5465H28.4004C28.7182 22.5465 28.9762 22.3007 28.9762 21.9966C28.9762 21.6925 28.7182 21.4467 28.4004 21.4467Z" fill="white"/>
<path d="M5.37189 18.1472H11.129C11.4468 18.1472 11.7047 17.9014 11.7047 17.5973C11.7047 17.2932 11.4468 17.0474 11.129 17.0474H5.37189C5.05409 17.0474 4.79617 17.2932 4.79617 17.5973C4.79617 17.9014 5.05409 18.1472 5.37189 18.1472Z" fill="white"/>
<path d="M28.4005 25.8459H22.6433C22.3255 25.8459 22.0676 26.0917 22.0676 26.3958C22.0676 26.6999 22.3255 26.9457 22.6433 26.9457H28.4005C28.7183 26.9457 28.9762 26.6999 28.9762 26.3958C28.9762 26.0917 28.7183 25.8459 28.4005 25.8459Z" fill="white"/>
<path d="M16.3104 17.5973C16.3104 17.9014 16.5683 18.1472 16.8861 18.1472H25.5218C25.8396 18.1472 26.0976 17.9014 26.0976 17.5973C26.0976 17.2932 25.8396 17.0474 25.5218 17.0474H16.8861C16.5683 17.0474 16.3104 17.2932 16.3104 17.5973Z" fill="white"/>
<path d="M14.4164 17.988C14.52 17.8835 14.5833 17.7405 14.5833 17.5975C14.5833 17.454 14.52 17.311 14.4164 17.2071C14.2034 17.0036 13.8119 17.0036 13.5989 17.2071C13.4952 17.311 13.4319 17.454 13.4319 17.5975C13.4319 17.7405 13.4952 17.8835 13.5989 17.988C13.7083 18.0919 13.8579 18.1475 14.0076 18.1475C14.1573 18.1475 14.307 18.0919 14.4164 17.988Z" fill="white"/>
<path d="M7.67471 21.9966C7.67471 22.3007 7.93263 22.5465 8.25043 22.5465H16.8861C17.2039 22.5465 17.4618 22.3007 17.4618 21.9966C17.4618 21.6925 17.2039 21.4467 16.8861 21.4467H8.25043C7.93263 21.4467 7.67471 21.6925 7.67471 21.9966Z" fill="white"/>
<path d="M5.37189 22.5469C5.52157 22.5469 5.67126 22.4864 5.78064 22.3875C5.88427 22.283 5.9476 22.14 5.9476 21.997C5.9476 21.8535 5.88427 21.7105 5.78064 21.6121C5.56763 21.4031 5.17614 21.4031 4.96313 21.6066C4.8595 21.7105 4.79617 21.8535 4.79617 21.997C4.79617 22.14 4.8595 22.283 4.96313 22.3875C5.07252 22.4864 5.21644 22.5469 5.37189 22.5469Z" fill="white"/>
<path d="M28.4004 18.1475C28.5501 18.1475 28.6998 18.0919 28.8092 17.988C28.9186 17.8835 28.9761 17.7405 28.9761 17.5975C28.9761 17.454 28.9186 17.311 28.8092 17.2071C28.5904 17.0036 28.2047 17.0036 27.9917 17.2071C27.888 17.311 27.8247 17.454 27.8247 17.5975C27.8247 17.7405 27.888 17.8835 27.9917 17.988C28.101 18.0919 28.2507 18.1475 28.4004 18.1475Z" fill="white"/>
<path d="M19.7647 25.8459H5.37189C5.05409 25.8459 4.79617 26.0917 4.79617 26.3958C4.79617 26.6999 5.05409 26.9457 5.37189 26.9457H19.7647C20.0825 26.9457 20.3404 26.6999 20.3404 26.3958C20.3404 26.0917 20.0825 25.8459 19.7647 25.8459Z" fill="white"/>
</svg>
