<svg width="34" height="30" viewBox="0 0 34 30" fill="none" xmlns="http://www.w3.org/2000/svg">
<path d="M22.2871 9.56018L17.4416 8.10643C17.0778 7.99791 16.704 7.9597 16.3336 7.97323V7.96076H10.4443L0.000610352 4.49023L0.0321847 19.1652L3.03016 20.6637L4.80522 16.3243L7.3983 17.3617L8.07065 15.6814L9.04441 16.6551L8.13592 17.5639C7.82018 17.8796 7.63922 18.3164 7.63922 18.7632C7.63922 19.6775 8.36835 20.421 9.27525 20.4531C9.30683 21.3393 10.0192 22.0517 10.9054 22.0833C10.937 22.9695 11.6494 23.6819 12.5356 23.7135C12.5683 24.6204 13.3112 25.3495 14.2258 25.3495C14.6723 25.3495 15.1093 25.1685 15.4248 24.8528L16.3336 23.9443L16.6987 24.3094C17.0144 24.6251 17.4512 24.8061 17.898 24.8061C18.8126 24.8061 19.5558 24.077 19.5879 23.1701C20.4741 23.1385 21.1865 22.4261 21.2181 21.5399C22.1043 21.5083 22.8167 20.7959 22.8483 19.9097C23.7552 19.877 24.4845 19.1341 24.4845 18.2198C24.4845 18.1426 24.4721 18.0664 24.4617 17.9897L25.2415 17.2099L25.8717 18.4708L29.2849 16.7639L31.3476 20.702L33.7223 19.1195V5.07476L22.2871 9.56018ZM2.46713 19.1673L1.11792 18.4925L1.09059 5.99758L7.04515 7.97668L2.46713 19.1673ZM6.79308 15.9488L5.21622 15.3184L8.07887 8.32002L9.63663 8.83795L6.79308 15.9488ZM8.72602 18.7632C8.72602 18.6027 8.79049 18.4458 8.90405 18.332L9.85951 17.3768C9.97307 17.2633 10.1301 17.1985 10.2904 17.1985C10.6263 17.1985 10.8996 17.4721 10.8996 17.8077C10.8996 17.968 10.8349 18.1251 10.7213 18.2386L9.76611 19.1941C9.65255 19.3076 9.49548 19.3721 9.33522 19.3721C8.99931 19.3721 8.72602 19.0988 8.72602 18.7632ZM10.3562 20.3934C10.3562 20.2328 10.4207 20.076 10.5342 19.9622L11.4897 19.007C11.6033 18.8935 11.7603 18.8287 11.9206 18.8287C12.2565 18.8287 12.5298 19.1023 12.5298 19.4379C12.5298 19.5982 12.4651 19.7553 12.3515 19.8688L11.3963 20.8243C11.2827 20.9378 11.1257 21.0023 10.9654 21.0023C10.6295 21.0023 10.3562 20.729 10.3562 20.3934ZM11.9864 22.0236C11.9864 21.863 12.0509 21.7062 12.1644 21.5924L13.1199 20.6372C13.2335 20.5237 13.3905 20.4589 13.5508 20.4589C13.8867 20.4589 14.16 20.7325 14.16 21.0681C14.16 21.2284 14.0953 21.3854 13.9817 21.499L13.0265 22.4545C12.9129 22.568 12.7559 22.6325 12.5956 22.6325C12.2597 22.6325 11.9864 22.3592 11.9864 22.0236ZM15.6119 23.1292L14.6567 24.0847C14.5431 24.1982 14.3861 24.2627 14.2258 24.2627C13.8899 24.2627 13.6166 23.9894 13.6166 23.6538C13.6166 23.4932 13.6811 23.3364 13.7946 23.2226L14.7501 22.2674C14.8637 22.1538 15.0207 22.0891 15.181 22.0891C15.5169 22.0891 15.7902 22.3627 15.7902 22.6983C15.7902 22.8586 15.7254 23.0156 15.6119 23.1292ZM22.7886 18.8287C22.6283 18.8287 22.4712 18.7642 22.3577 18.6507L17.8046 14.0973L17.0362 14.8657L21.5893 19.4188C21.7028 19.5326 21.7676 19.6895 21.7676 19.85C21.7676 20.1856 21.4943 20.4589 21.1584 20.4589C20.9981 20.4589 20.841 20.3944 20.7275 20.2809L16.1744 15.7275L15.406 16.4959L19.9591 21.049C20.0726 21.1628 20.1374 21.3196 20.1374 21.4802C20.1374 21.8158 19.8641 22.0891 19.5282 22.0891C19.3679 22.0891 19.2108 22.0246 19.0973 21.9111L14.5442 17.3577L13.7758 18.1261L18.3289 22.6792C18.4424 22.793 18.5072 22.9498 18.5072 23.1104C18.5072 23.446 18.2339 23.7193 17.898 23.7193C17.7377 23.7193 17.5806 23.6548 17.4671 23.5413L16.8542 22.9281C16.865 22.8522 16.877 22.776 16.877 22.6983C16.877 21.7837 16.1476 21.0405 15.2407 21.0084C15.2091 20.1222 14.4967 19.4098 13.6105 19.3782C13.5789 18.492 12.8665 17.7796 11.9803 17.748C11.9477 16.8411 11.205 16.1117 10.2904 16.1117C10.2132 16.1117 10.137 16.1242 10.0606 16.1345L8.50924 14.5832L10.724 9.04756H13.935L11.9397 11.0431C11.6189 11.3631 11.443 11.7892 11.443 12.2424C11.443 13.1774 12.2037 13.9381 13.139 13.9381C13.5856 13.9381 14.0226 13.7572 14.338 13.4414L15.7777 12.0015C16.0722 11.708 16.591 11.6966 16.8977 11.9776L18.1681 13.1421C18.5902 13.529 19.0593 13.8508 19.5613 14.1029L23.2195 17.7886C23.333 17.9024 23.3978 18.0593 23.3978 18.2198C23.3978 18.5554 23.1245 18.8287 22.7886 18.8287ZM23.9412 16.9735L21.7076 14.723C21.9071 14.7418 22.1082 14.7532 22.311 14.7532V13.6664C21.0459 13.6664 19.8352 13.1955 18.9028 12.3406L17.6321 11.1766C16.9149 10.518 15.6984 10.5443 15.0098 11.2336L13.5704 12.6733C13.4563 12.7863 13.2993 12.8513 13.139 12.8513C12.8031 12.8513 12.5298 12.5781 12.5298 12.2424C12.5298 12.0792 12.5927 11.9267 12.7078 11.8112L14.7793 9.74007C15.3879 9.1314 16.302 8.89977 17.129 9.14759L21.9294 10.5875L24.7284 16.1863L23.9412 16.9735ZM26.3575 17.0128L23.0629 10.423L25.4692 9.47899L28.7805 15.801L26.3575 17.0128ZM32.6355 18.5382L31.7496 19.1288L26.487 9.08019L32.6355 6.6686V18.5382Z" fill="#E3B873"/>
<circle cx="19.5277" cy="1.70141" r="0.485591" fill="#E3B873"/>
<circle cx="7.27087" cy="24.6306" r="0.485591" fill="#E3B873"/>
<circle cx="9.32898" cy="26.3191" r="0.485591" fill="#E3B873"/>
<circle cx="11.6776" cy="27.5579" r="0.485591" fill="#E3B873"/>
<circle cx="14.2264" cy="28.3503" r="0.485591" fill="#E3B873"/>
<circle cx="22.0751" cy="2.47436" r="0.485591" fill="#E3B873"/>
<circle cx="24.4242" cy="3.72876" r="0.485591" fill="#E3B873"/>
<path d="M26.6914 3.02686V5.82855H23.858" stroke="#E3B873" stroke-linecap="round" stroke-linejoin="round"/>
<path d="M4.87135 24.314L4.87135 22.0471L7.13538 22.0471" stroke="#E3B873" stroke-linecap="round" stroke-linejoin="round"/>
<path d="M7.66174 5.00987C9.19686 3.67406 10.1734 3.05949 12.0129 2.34124C13.9642 1.5793 15.2846 1.40038 17.4051 1.40039" stroke="#E3B873" stroke-linecap="round"/>
<path d="M28.2655 22.4984C27.1243 24.2786 24.9986 26.0167 23.2699 26.9712C21.436 27.9837 19.4712 28.5543 16.8541 28.6906" stroke="#E3B873" stroke-linecap="round"/>
</svg>
