<svg width="34" height="33" viewBox="0 0 34 33" fill="none" xmlns="http://www.w3.org/2000/svg">
<path fill-rule="evenodd" clip-rule="evenodd" d="M3.62732 1.38187C3.62732 1.17097 3.80887 1 4.03283 1H33.2295C33.4535 1 33.6351 1.17097 33.6351 1.38187V29.0039C33.6351 29.2148 33.4535 29.3858 33.2295 29.3858C33.0056 29.3858 32.824 29.2148 32.824 29.0039V1.76374H4.03283C3.80887 1.76374 3.62732 1.59277 3.62732 1.38187Z" fill="white" stroke="white" stroke-width="0.5" stroke-linecap="round" stroke-linejoin="round"/>
<path d="M3.12328 5.67467L3.12328 29.4373L3.12328 29.5623L3.24828 29.5623L4.0529 29.5623L4.1779 29.5623L4.1779 29.4373L4.1779 5.67467L5.83883 7.30525C6.04456 7.50722 6.37719 7.50722 6.58292 7.30525C6.78994 7.10201 6.78994 6.77153 6.58292 6.56829L4.02263 4.05479C3.8169 3.85282 3.48428 3.85282 3.27854 4.05479L0.718252 6.56829C0.511232 6.77153 0.511233 7.10201 0.718252 7.30524L0.718252 7.30525C0.923987 7.50722 1.25661 7.50722 1.46234 7.30525L3.12328 5.67467Z" fill="white" stroke="white" stroke-width="0.25"/>
<path d="M25.9129 27.2917L27.5766 28.9165L3.24725 28.9165H3.12225V29.0415V29.8314V29.9564H3.24725L27.5766 29.9564L25.9129 31.5813C25.7048 31.7845 25.7048 32.1154 25.9129 32.3187L26.0002 32.2292L25.9129 32.3187C26.1194 32.5203 26.453 32.5203 26.6595 32.3187L29.2332 29.8052C29.4413 29.6019 29.4413 29.271 29.2332 29.0678L26.6595 26.5543C26.453 26.3526 26.1194 26.3526 25.9129 26.5543L25.9129 26.5543C25.7048 26.7576 25.7048 27.0884 25.9129 27.2917Z" fill="white" stroke="white" stroke-width="0.25"/>
<path fill-rule="evenodd" clip-rule="evenodd" d="M14.7426 1.11568C14.8997 1.26992 14.8997 1.51999 14.7426 1.67423L9.91488 6.41373C9.75776 6.56797 9.50303 6.56797 9.34592 6.41373C9.18881 6.25949 9.18881 6.00941 9.34592 5.85517L14.1736 1.11568C14.3308 0.96144 14.5855 0.96144 14.7426 1.11568Z" fill="white" stroke="white" stroke-width="0.5" stroke-linecap="round" stroke-linejoin="round"/>
<path fill-rule="evenodd" clip-rule="evenodd" d="M33.3831 19.9423C33.5402 20.0966 33.5402 20.3467 33.3831 20.5009L28.9577 24.8454C28.8005 24.9997 28.5458 24.9997 28.3887 24.8454C28.2316 24.6912 28.2316 24.4411 28.3887 24.2869L32.8141 19.9423C32.9712 19.7881 33.226 19.7881 33.3831 19.9423Z" fill="white" stroke="white" stroke-width="0.5" stroke-linecap="round" stroke-linejoin="round"/>
<path fill-rule="evenodd" clip-rule="evenodd" d="M20.7755 1.11391C20.9336 1.26716 20.9352 1.51723 20.7791 1.67245L10.319 12.073C10.1629 12.2282 9.90819 12.2298 9.75008 12.0766C9.59197 11.9233 9.59035 11.6732 9.74646 11.518L20.2065 1.11746C20.3626 0.962245 20.6174 0.960652 20.7755 1.11391Z" fill="white" stroke="white" stroke-width="0.5" stroke-linecap="round" stroke-linejoin="round"/>
<path fill-rule="evenodd" clip-rule="evenodd" d="M33.5171 13.3591C33.6743 13.5134 33.6743 13.7635 33.5171 13.9177L23.3253 23.9233C23.1682 24.0775 22.9134 24.0775 22.7563 23.9233C22.5992 23.7691 22.5992 23.519 22.7563 23.3647L32.9482 13.3591C33.1053 13.2049 33.36 13.2049 33.5171 13.3591Z" fill="white" stroke="white" stroke-width="0.5" stroke-linecap="round" stroke-linejoin="round"/>
<path fill-rule="evenodd" clip-rule="evenodd" d="M27.2166 1.24959C27.3724 1.40507 27.3704 1.65514 27.212 1.80813L10.4491 18.0014C10.2907 18.1544 10.036 18.1524 9.88014 17.9969C9.7243 17.8414 9.72635 17.5913 9.88472 17.4384L26.6477 1.24509C26.806 1.0921 27.0608 1.09412 27.2166 1.24959Z" fill="white" stroke="white" stroke-width="0.5" stroke-linecap="round" stroke-linejoin="round"/>
<path fill-rule="evenodd" clip-rule="evenodd" d="M33.5172 7.17177C33.6744 7.32601 33.6744 7.57609 33.5172 7.73033L16.6202 24.3185C16.4631 24.4728 16.2084 24.4728 16.0512 24.3185C15.8941 24.1643 15.8941 23.9142 16.0512 23.76L32.9483 7.17177C33.1054 7.01753 33.3601 7.01753 33.5172 7.17177Z" fill="white" stroke="white" stroke-width="0.5" stroke-linecap="round" stroke-linejoin="round"/>
<path fill-rule="evenodd" clip-rule="evenodd" d="M33.249 1.24733C33.4061 1.40157 33.4061 1.65165 33.249 1.80589L10.1832 24.4501C10.0261 24.6044 9.77135 24.6044 9.61423 24.4501C9.45712 24.2959 9.45712 24.0458 9.61423 23.8916L32.68 1.24733C32.8372 1.09309 33.0919 1.09309 33.249 1.24733Z" fill="white" stroke="white" stroke-width="0.5" stroke-linecap="round" stroke-linejoin="round"/>
</svg>
